<?xml version="1.0" standalone="no"?>
<!DOCTYPE svg PUBLIC "-//W3C//DTD SVG 20010904//EN"
 "http://www.w3.org/TR/2001/REC-SVG-20010904/DTD/svg10.dtd">
<svg version="1.0" xmlns="http://www.w3.org/2000/svg"
 width="236.000000pt" height="206.000000pt" viewBox="0 0 236.000000 206.000000"
 preserveAspectRatio="xMidYMid meet">

<g transform="translate(0.000000,206.000000) scale(0.100000,-0.100000)"
fill="#000000" stroke="none">
<path d="M930 1835 c-432 -87 -758 -447 -799 -883 -19 -208 27 -422 129 -594
63 -105 80 -109 220 -40 124 61 148 106 87 162 -28 26 -58 25 -117 -5 -27 -14
-53 -25 -58 -25 -13 0 -66 124 -88 205 -26 97 -26 302 -1 400 27 105 26 104
92 72 72 -35 117 -36 144 -1 40 51 17 98 -68 139 -34 16 -61 32 -61 36 0 15
89 126 136 169 125 116 321 209 464 222 l35 3 5 -78 c4 -67 8 -82 29 -98 30
-25 62 -24 95 2 24 19 26 27 26 93 0 40 2 75 5 78 10 9 118 -13 190 -38 103
-37 125 -39 158 -14 35 27 37 80 5 110 -30 27 -115 58 -223 81 -106 22 -305
24 -405 4z"/>
<path d="M1529 1427 c-336 -230 -534 -373 -574 -414 -43 -44 -70 -127 -61
-185 19 -119 113 -201 231 -202 74 0 127 25 182 88 84 96 543 754 543 779 0
43 -42 87 -84 87 -7 0 -114 -69 -237 -153z m-75 -249 c-21 -36 -246 -347 -268
-370 -50 -55 -136 -23 -136 50 0 27 8 42 33 64 29 26 368 268 375 268 2 0 0
-6 -4 -12z"/>
<path d="M1915 1285 c-31 -30 -31 -47 -1 -121 76 -186 74 -430 -5 -619 -45
-108 -39 -104 -104 -72 -69 33 -99 34 -130 2 -29 -28 -32 -61 -9 -94 19 -26
193 -111 228 -111 38 0 69 33 118 126 89 169 130 379 109 555 -17 146 -64 302
-102 340 -27 27 -75 24 -104 -6z"/>
</g>
</svg>
